<svg id="svg" version="1.1" xmlns="http://www.w3.org/2000/svg" xmlns:xlink="http://www.w3.org/1999/xlink" width="400" height="374.0088105726872" viewBox="0, 0, 400,374.0088105726872"><g id="svgg"><path id="path0" d="M192.111 28.781 C 191.739 29.153,192.042 29.709,193.358 31.075 C 197.588 35.465,199.894 40.650,200.920 48.082 C 201.147 49.729,201.415 51.455,201.516 51.918 L 201.698 52.760 229.724 52.760 C 245.138 52.760,258.016 52.657,258.342 52.532 C 258.864 52.332,258.934 50.925,258.934 40.563 L 258.934 28.820 225.600 28.722 C 207.267 28.669,192.197 28.695,192.111 28.781 M192.329 82.912 C 191.815 82.999,190.144 83.255,188.615 83.481 C 187.087 83.707,185.572 84.029,185.248 84.196 C 184.924 84.364,183.143 84.874,181.291 85.330 C 179.439 85.786,177.502 86.378,176.988 86.647 C 176.473 86.916,175.210 87.435,174.181 87.802 C 172.050 88.562,167.828 90.681,165.489 92.166 C 164.619 92.719,163.777 93.174,163.618 93.178 C 163.460 93.181,162.934 93.602,162.449 94.113 C 161.964 94.624,161.403 95.042,161.201 95.042 C 160.024 95.042,150.943 103.266,151.246 104.058 C 151.380 104.407,153.147 104.890,156.454 105.484 C 159.207 105.977,161.712 106.524,162.021 106.698 C 162.329 106.871,164.771 107.427,167.446 107.931 C 170.122 108.436,173.306 109.101,174.523 109.410 C 176.653 109.949,177.839 109.793,178.485 108.886 C 178.587 108.742,179.680 108.249,180.912 107.792 C 182.144 107.334,183.327 106.815,183.540 106.638 C 183.923 106.320,186.880 105.499,192.329 104.197 C 195.568 103.423,205.154 103.269,207.316 103.956 C 208.025 104.182,210.267 104.726,212.297 105.167 C 214.327 105.607,216.768 106.351,217.722 106.821 C 218.677 107.291,220.089 107.877,220.861 108.123 C 221.632 108.369,222.264 108.695,222.264 108.847 C 222.264 108.999,223.274 109.606,224.509 110.196 C 225.744 110.787,226.754 111.403,226.754 111.565 C 226.754 111.728,227.256 112.121,227.870 112.438 C 228.484 112.756,229.480 113.476,230.084 114.038 C 230.687 114.601,231.795 115.566,232.545 116.183 C 233.295 116.801,234.827 118.400,235.949 119.738 C 237.071 121.076,238.198 122.419,238.452 122.722 C 240.272 124.893,244.454 133.058,245.118 135.734 C 245.385 136.815,245.715 137.699,245.851 137.699 C 247.806 137.699,247.823 162.363,245.869 163.891 C 245.737 163.994,245.319 165.089,244.940 166.324 C 242.903 172.955,239.541 178.269,233.676 184.128 C 229.377 188.424,228.795 188.962,228.449 188.962 C 228.292 188.962,227.384 189.522,226.430 190.207 C 223.895 192.027,220.911 193.604,218.148 194.585 C 216.810 195.060,215.530 195.589,215.303 195.761 C 211.793 198.406,188.977 198.361,185.407 195.701 C 185.201 195.547,184.107 195.129,182.975 194.772 C 181.843 194.415,179.963 193.566,178.798 192.887 C 177.633 192.208,176.328 191.541,175.898 191.404 C 175.469 191.268,175.117 190.994,175.117 190.796 C 175.117 190.597,174.822 190.327,174.462 190.196 C 173.265 189.759,170.271 187.365,167.295 184.468 L 165.179 182.406 161.074 181.713 C 158.816 181.332,156.801 180.892,156.595 180.735 C 156.389 180.578,154.116 180.078,151.543 179.622 C 148.971 179.167,146.193 178.561,145.370 178.276 C 144.546 177.990,142.778 177.575,141.441 177.353 C 140.103 177.131,138.714 176.862,138.354 176.756 C 137.060 176.375,139.746 183.827,141.405 185.220 C 141.527 185.323,142.036 186.165,142.534 187.091 C 143.487 188.861,143.712 189.180,146.756 193.078 C 151.708 199.417,159.953 206.627,165.965 209.872 C 166.780 210.312,167.699 210.834,168.007 211.032 C 171.861 213.502,184.262 217.751,187.671 217.769 C 188.093 217.772,188.605 217.940,188.809 218.144 C 190.072 219.408,208.457 219.428,212.348 218.171 C 212.965 217.971,215.239 217.393,217.399 216.886 C 222.510 215.688,228.739 213.338,232.367 211.240 C 232.881 210.942,234.270 210.183,235.454 209.554 C 236.637 208.924,237.605 208.242,237.605 208.040 C 237.605 207.837,237.816 207.669,238.073 207.667 C 238.535 207.663,241.238 205.732,244.356 203.181 C 247.576 200.546,255.035 192.509,255.511 191.162 C 255.584 190.956,256.047 190.352,256.540 189.820 C 257.033 189.288,257.437 188.666,257.437 188.439 C 257.438 188.212,257.830 187.571,258.308 187.014 C 258.787 186.457,259.500 185.278,259.892 184.395 C 260.283 183.511,260.818 182.565,261.078 182.293 C 261.339 182.021,261.553 181.646,261.553 181.459 C 261.553 181.273,262.126 179.896,262.826 178.399 C 264.903 173.958,266.679 168.107,267.344 163.517 C 267.686 161.151,268.123 158.697,268.314 158.065 C 268.790 156.494,268.767 143.795,268.288 143.499 C 268.082 143.371,267.914 142.718,267.914 142.046 C 267.914 138.382,264.433 125.097,263.360 124.665 C 263.189 124.596,263.050 124.317,263.050 124.045 C 263.050 123.026,259.586 116.215,258.403 114.908 C 258.078 114.548,257.810 114.098,257.809 113.909 C 257.809 113.719,257.160 112.709,256.368 111.665 C 255.576 110.620,254.777 109.501,254.592 109.179 C 254.031 108.198,249.882 103.614,247.913 101.801 C 246.894 100.862,245.693 99.711,245.243 99.243 C 244.794 98.776,243.907 98.018,243.273 97.559 C 238.016 93.759,236.914 93.008,235.838 92.495 C 235.163 92.173,234.612 91.796,234.612 91.656 C 234.612 91.517,233.559 90.933,232.273 90.360 C 230.987 89.786,229.850 89.199,229.747 89.054 C 229.413 88.584,223.292 86.362,219.457 85.319 C 217.399 84.759,215.463 84.200,215.154 84.076 C 212.883 83.165,195.933 82.300,192.329 82.912 " stroke="none" fill="#bcbcbc" fill-rule="evenodd"></path><path id="path1" d="M153.414 22.249 C 152.694 22.546,151.137 23.061,149.953 23.395 C 148.770 23.728,147.592 24.199,147.334 24.442 C 147.077 24.685,146.106 25.254,145.176 25.708 C 142.470 27.028,136.721 32.840,135.258 35.734 C 134.842 36.557,134.231 37.652,133.901 38.167 C 133.571 38.681,133.010 40.281,132.655 41.721 C 132.300 43.162,131.831 44.719,131.611 45.181 C 131.100 46.260,131.091 54.743,131.600 55.848 C 131.813 56.310,132.359 58.034,132.814 59.678 C 133.268 61.323,133.796 62.856,133.987 63.085 C 134.177 63.315,134.739 64.267,135.236 65.202 C 135.733 66.137,136.533 67.368,137.013 67.937 C 137.493 68.507,138.391 69.565,139.008 70.288 C 140.332 71.839,145.773 75.959,146.498 75.959 C 146.774 75.959,147.257 76.216,147.572 76.531 C 148.399 77.358,150.660 78.077,154.027 78.584 C 155.645 78.828,157.262 79.179,157.619 79.364 C 158.502 79.821,162.668 79.792,162.956 79.326 C 163.083 79.121,163.640 78.949,164.194 78.946 C 174.373 78.880,186.057 68.411,188.101 57.523 C 188.420 55.829,188.828 54.151,189.008 53.794 C 189.465 52.888,189.426 47.521,188.962 47.521 C 188.756 47.521,188.587 46.959,188.587 46.271 C 188.587 42.819,185.960 36.229,183.268 32.928 C 180.981 30.125,179.404 28.450,179.045 28.444 C 178.838 28.441,178.224 27.966,177.680 27.389 C 177.135 26.813,175.957 26.016,175.062 25.619 C 174.166 25.221,173.218 24.690,172.954 24.438 C 172.691 24.185,171.512 23.701,170.335 23.361 C 169.158 23.022,167.858 22.552,167.446 22.317 C 166.251 21.635,155.034 21.581,153.414 22.249 M166.448 33.649 C 167.752 34.092,169.173 34.784,169.606 35.188 C 170.039 35.591,170.519 35.921,170.673 35.921 C 171.860 35.921,176.226 41.620,177.200 44.441 C 178.535 48.304,178.053 56.879,176.410 58.522 C 176.164 58.769,175.702 59.473,175.384 60.088 C 171.929 66.769,158.819 70.888,153.077 67.096 C 152.542 66.743,151.422 66.089,150.587 65.643 C 148.865 64.722,145.911 61.824,145.157 60.316 C 144.880 59.762,144.437 59.043,144.172 58.719 C 141.499 55.455,141.774 46.222,144.688 41.423 C 145.990 39.279,149.009 35.921,149.636 35.921 C 149.784 35.921,150.237 35.613,150.642 35.236 C 153.352 32.710,161.325 31.910,166.448 33.649 M64.537 270.239 C 64.436 270.504,64.397 288.653,64.450 310.571 L 64.546 350.421 68.570 350.527 L 72.595 350.633 72.499 310.303 L 72.404 269.972 68.562 269.865 C 65.698 269.786,64.673 269.881,64.537 270.239 M299.228 271.421 C 299.120 271.703,298.914 272.714,298.772 273.666 C 298.629 274.618,298.393 275.398,298.247 275.398 C 298.101 275.398,297.505 277.629,296.923 280.355 C 296.340 283.082,295.737 285.482,295.583 285.688 C 295.429 285.893,294.835 288.251,294.263 290.926 C 293.691 293.601,293.116 295.875,292.985 295.978 C 292.854 296.080,292.352 298.017,291.870 300.281 C 291.388 302.544,290.872 304.565,290.723 304.771 C 290.417 305.195,289.242 310.224,289.242 311.112 C 289.242 312.484,294.139 311.279,294.791 309.747 C 294.936 309.406,298.127 307.952,298.738 307.949 C 298.969 307.948,299.663 307.681,300.281 307.355 C 303.152 305.842,313.068 305.832,316.007 307.339 C 316.619 307.652,317.854 308.262,318.752 308.695 C 319.651 309.127,320.618 309.713,320.902 309.997 C 321.186 310.281,321.821 310.830,322.314 311.218 C 323.609 312.236,325.869 315.921,326.580 318.173 C 327.821 322.103,327.085 333.936,325.540 334.891 C 325.349 335.009,324.940 335.710,324.632 336.448 C 323.617 338.878,319.450 342.675,316.894 343.498 C 315.989 343.790,315.151 344.166,315.033 344.334 C 314.241 345.460,304.734 345.285,302.526 344.104 C 301.908 343.773,301.177 343.502,300.900 343.501 C 300.353 343.498,298.166 342.364,297.825 341.907 C 297.710 341.751,297.086 341.234,296.440 340.757 C 295.202 339.844,291.516 335.345,291.482 334.705 C 291.371 332.606,289.018 332.280,286.911 334.072 C 286.238 334.644,285.225 335.404,284.659 335.759 C 284.093 336.115,283.630 336.602,283.630 336.841 C 283.630 337.592,285.112 340.377,285.884 341.075 C 286.290 341.443,286.623 341.908,286.623 342.110 C 286.623 342.726,291.966 347.849,293.340 348.550 C 294.050 348.912,294.834 349.411,295.082 349.659 C 295.329 349.906,296.516 350.413,297.719 350.784 C 298.922 351.155,300.075 351.585,300.281 351.738 C 302.285 353.233,313.351 353.234,316.745 351.740 C 317.156 351.559,318.630 351.048,320.019 350.605 C 321.408 350.161,322.544 349.675,322.544 349.524 C 322.544 349.373,323.092 348.989,323.761 348.670 C 325.047 348.057,327.416 346.145,328.700 344.684 C 329.122 344.204,329.839 343.386,330.294 342.867 C 330.749 342.348,331.498 341.142,331.959 340.186 C 332.419 339.229,332.994 338.246,333.236 338.000 C 333.478 337.754,333.967 336.407,334.322 335.006 C 334.678 333.606,335.162 332.056,335.398 331.562 C 335.981 330.342,335.979 318.856,335.396 317.643 C 335.158 317.149,334.589 315.524,334.133 314.032 C 333.676 312.540,333.174 311.319,333.017 311.319 C 332.861 311.319,332.447 310.718,332.099 309.983 C 331.302 308.303,327.714 304.454,325.942 303.379 C 325.205 302.931,324.512 302.436,324.401 302.278 C 324.111 301.863,319.290 300.094,318.451 300.094 C 318.061 300.094,317.672 299.883,317.587 299.626 C 317.470 299.275,315.763 299.158,310.758 299.158 C 305.752 299.158,304.046 299.275,303.929 299.626 C 303.843 299.883,303.471 300.094,303.103 300.094 C 302.734 300.094,301.728 300.342,300.866 300.646 C 299.411 301.160,299.314 301.153,299.490 300.553 C 299.594 300.197,299.795 299.233,299.935 298.410 C 300.076 297.587,300.320 296.745,300.477 296.539 C 300.634 296.333,301.223 294.060,301.787 291.487 C 302.350 288.915,302.931 286.642,303.078 286.436 C 303.225 286.230,303.740 284.252,304.222 282.039 L 305.099 278.017 318.686 278.017 L 332.273 278.017 332.273 274.462 L 332.273 270.907 315.849 270.907 C 302.275 270.907,299.391 270.996,299.228 271.421 M145.370 299.719 C 145.242 299.925,144.678 300.094,144.116 300.094 C 141.221 300.094,134.747 302.677,132.518 304.722 C 128.969 307.978,127.596 309.365,127.596 309.692 C 127.596 309.906,127.266 310.379,126.862 310.745 C 126.004 311.521,124.602 314.090,124.602 314.885 C 124.602 315.188,124.446 315.435,124.255 315.435 C 121.880 315.435,121.774 335.002,124.140 336.742 C 124.296 336.857,124.842 337.877,125.355 339.008 C 126.268 341.026,133.030 348.363,133.977 348.363 C 134.194 348.363,134.989 348.783,135.744 349.296 C 136.499 349.809,137.964 350.495,138.998 350.819 C 140.033 351.144,141.216 351.558,141.628 351.740 C 145.011 353.231,151.927 353.224,155.472 351.726 C 155.884 351.552,157.107 351.131,158.190 350.790 C 159.273 350.449,160.376 349.974,160.640 349.734 C 160.905 349.495,161.871 348.893,162.787 348.397 C 163.703 347.902,164.848 347.144,165.330 346.713 C 167.144 345.095,169.878 342.379,169.878 342.195 C 169.878 342.090,170.467 341.184,171.187 340.182 C 171.906 339.181,172.753 337.623,173.067 336.720 C 173.382 335.818,173.920 334.490,174.264 333.770 C 175.442 331.304,175.254 317.680,174.042 317.680 C 173.900 317.680,173.558 316.917,173.283 315.985 C 171.978 311.565,166.138 304.909,162.060 303.192 C 161.361 302.898,160.570 302.438,160.302 302.170 C 159.695 301.563,154.340 300.094,152.734 300.094 C 152.079 300.094,151.543 299.925,151.543 299.719 C 151.543 299.501,150.304 299.345,148.572 299.345 C 146.938 299.345,145.497 299.514,145.370 299.719 M202.277 299.667 C 202.168 299.844,201.315 300.094,200.382 300.222 C 197.950 300.555,194.917 301.612,194.689 302.205 C 194.582 302.484,194.273 302.713,194.003 302.713 C 193.317 302.713,189.336 306.415,189.336 307.053 C 189.336 307.341,189.167 307.577,188.962 307.577 C 188.742 307.577,188.587 306.268,188.587 304.397 L 188.587 301.216 185.073 301.216 C 182.213 301.216,181.516 301.326,181.331 301.808 C 180.984 302.711,181.072 349.604,181.421 350.155 C 181.645 350.508,182.721 350.608,185.438 350.529 L 189.149 350.421 189.363 334.144 C 189.600 316.048,189.623 315.870,192.164 311.804 C 193.635 309.451,193.612 309.468,198.654 307.069 C 201.902 305.524,210.565 307.341,212.256 309.922 C 212.587 310.427,213.099 311.081,213.394 311.376 C 214.905 312.887,215.154 316.052,215.154 333.700 L 215.154 350.608 219.105 350.608 L 223.055 350.608 222.914 331.244 C 222.769 311.428,222.501 307.951,221.113 307.951 C 220.923 307.951,220.767 307.712,220.767 307.420 C 220.767 306.730,217.097 302.713,216.466 302.713 C 216.200 302.713,215.893 302.478,215.782 302.190 C 215.544 301.570,212.692 300.572,210.186 300.232 C 209.203 300.098,208.309 299.844,208.200 299.667 C 208.090 299.490,206.758 299.345,205.239 299.345 C 203.719 299.345,202.387 299.490,202.277 299.667 M251.670 299.667 C 251.560 299.843,250.582 300.097,249.496 300.229 C 243.905 300.912,237.025 305.831,234.506 310.945 C 234.050 311.871,233.547 312.725,233.389 312.842 C 232.847 313.244,231.605 318.238,231.369 320.967 C 231.239 322.466,230.989 323.780,230.814 323.889 C 230.362 324.168,230.415 328.906,230.870 328.906 C 231.076 328.906,231.244 329.672,231.244 330.609 C 231.244 333.461,232.379 337.548,233.991 340.505 C 235.424 343.133,239.944 348.360,240.786 348.363 C 240.992 348.363,241.624 348.763,242.192 349.251 C 243.246 350.158,247.307 351.754,250.327 352.448 C 253.663 353.215,259.838 352.848,262.488 351.725 C 262.900 351.551,263.910 351.208,264.733 350.963 C 267.837 350.040,273.942 344.953,275.108 342.320 C 275.368 341.733,275.707 341.254,275.861 341.254 C 276.016 341.254,276.498 340.496,276.934 339.570 L 277.725 337.886 276.842 337.149 C 276.356 336.744,275.075 336.040,273.994 335.584 C 272.914 335.128,272.030 334.617,272.030 334.449 C 272.030 333.308,270.281 334.304,269.668 335.795 C 268.460 338.733,265.148 342.230,262.046 343.842 C 254.799 347.610,245.534 344.928,242.095 338.068 C 241.581 337.042,241.040 336.112,240.892 336.001 C 240.543 335.738,239.598 331.547,239.272 328.812 L 239.016 326.660 258.142 326.660 L 277.268 326.660 277.268 324.255 C 277.268 320.844,276.570 316.257,275.784 314.501 C 275.415 313.677,274.984 312.582,274.826 312.067 C 274.669 311.553,274.101 310.476,273.566 309.675 C 273.030 308.874,272.420 307.932,272.211 307.581 C 271.764 306.832,269.118 304.222,268.238 303.663 C 265.219 301.744,264.061 301.177,262.129 300.674 C 260.902 300.355,259.429 300.094,258.855 300.094 C 258.281 300.094,257.811 299.925,257.811 299.719 C 257.811 299.260,251.952 299.209,251.670 299.667 M82.320 304.771 L 82.320 308.326 94.761 308.331 C 101.604 308.334,107.022 308.461,106.801 308.612 C 106.580 308.763,105.990 309.645,105.491 310.571 C 104.992 311.497,104.476 312.339,104.345 312.442 C 104.116 312.621,102.973 314.427,100.794 318.054 C 100.237 318.980,99.493 320.075,99.140 320.486 C 98.786 320.898,98.202 321.824,97.840 322.544 C 97.479 323.265,97.065 323.938,96.922 324.041 C 96.778 324.144,96.175 325.070,95.582 326.099 C 94.988 327.128,94.369 328.138,94.206 328.344 C 93.303 329.483,90.178 334.534,90.178 334.853 C 90.178 335.060,89.953 335.364,89.679 335.529 C 89.405 335.693,88.689 336.740,88.089 337.855 C 87.489 338.970,86.745 340.164,86.436 340.509 C 86.127 340.854,85.538 341.705,85.126 342.399 C 84.715 343.094,83.992 344.257,83.520 344.984 C 83.048 345.710,82.566 346.600,82.447 346.960 C 82.329 347.320,82.088 347.615,81.912 347.615 C 81.558 347.615,80.449 349.589,80.449 350.219 C 80.449 350.493,86.602 350.585,100.561 350.518 L 120.674 350.421 120.674 347.053 L 120.674 343.686 107.297 343.587 C 99.939 343.533,93.920 343.416,93.920 343.326 C 93.920 343.236,94.425 342.413,95.042 341.499 C 95.659 340.584,96.165 339.702,96.165 339.540 C 96.165 339.377,96.477 338.896,96.859 338.471 C 97.240 338.046,97.956 336.941,98.449 336.015 C 98.942 335.089,99.527 334.213,99.748 334.068 C 99.970 333.924,100.458 333.124,100.834 332.291 C 101.210 331.458,101.642 330.776,101.795 330.776 C 101.948 330.776,102.528 329.906,103.085 328.842 C 103.641 327.778,104.321 326.683,104.595 326.409 C 104.869 326.135,105.472 325.153,105.934 324.227 C 106.396 323.302,106.874 322.544,106.996 322.544 C 107.119 322.544,107.636 321.756,108.146 320.792 C 108.656 319.828,109.299 318.776,109.574 318.453 C 109.850 318.131,110.895 316.520,111.898 314.874 C 112.901 313.227,113.895 311.679,114.107 311.432 C 114.319 311.186,114.942 310.175,115.490 309.187 C 116.039 308.199,116.883 306.869,117.365 306.232 C 117.847 305.595,118.242 304.922,118.242 304.735 C 118.242 304.549,118.663 303.907,119.177 303.309 C 121.053 301.128,121.809 301.216,101.216 301.216 L 82.320 301.216 82.320 304.771 M152.578 307.173 C 152.935 307.362,154.259 307.880,155.520 308.324 C 159.849 309.848,163.852 313.844,165.391 318.179 C 165.841 319.448,166.404 320.891,166.641 321.386 C 167.205 322.561,167.194 329.664,166.627 330.821 C 166.387 331.311,165.911 332.599,165.569 333.684 C 164.306 337.699,158.116 343.873,155.354 343.873 C 155.111 343.873,154.911 344.018,154.911 344.196 C 154.911 344.837,150.423 345.475,147.287 345.279 C 141.535 344.921,134.782 340.470,132.658 335.636 C 132.252 334.712,131.780 333.857,131.609 333.735 C 130.060 332.632,130.101 319.632,131.657 318.428 C 131.790 318.326,132.288 317.415,132.765 316.405 C 133.563 314.711,134.725 313.174,136.253 311.789 C 136.590 311.484,137.299 310.846,137.829 310.372 C 138.815 309.490,143.173 307.577,144.195 307.577 C 144.508 307.577,144.868 307.409,144.995 307.203 C 145.286 306.733,151.699 306.708,152.578 307.173 M256.501 307.203 C 256.629 307.409,257.029 307.577,257.391 307.577 C 262.094 307.577,266.800 312.258,267.831 317.961 L 268.186 319.925 253.824 319.925 L 239.462 319.925 239.690 318.896 C 240.985 313.044,245.161 308.487,249.927 307.725 C 250.774 307.590,251.557 307.333,251.667 307.154 C 251.947 306.701,256.218 306.745,256.501 307.203 " stroke="none" fill="#2cccac" fill-rule="evenodd"></path><path id="path2" d="" stroke="none" fill="#c0c4b4" fill-rule="evenodd"></path><path id="path3" d="" stroke="none" fill="#c0c4b4" fill-rule="evenodd"></path><path id="path4" d="" stroke="none" fill="#c0c4b4" fill-rule="evenodd"></path></g></svg>